name analog
datacolumns 19
datarows 53
range 0.2425 0.2685
endheader
time	ground_force_vx	ground_force_vy	ground_force_vz	ground_force_px	ground_force_py	ground_force_pz	l_ground_force_vx	l_ground_force_vy	l_ground_force_vz	l_ground_force_px	l_ground_force_py	l_ground_force_pz	ground_torque_x	ground_torque_y	ground_torque_z	l_ground_torque_x	l_ground_torque_y	l_ground_torque_z
0.2425	-0.0	-0.0	-0.0	-0.0	-0.0	-0.0	10.377591133117676	-7.770744323730469	-489.48583984375	-0.0	-0.0	-0.0	-0.0	-0.0	-0.0	144758.859375	15120.7568359375	3564.56640625
0.243	-0.0	-0.0	-0.0	-0.0	-0.0	-0.0	9.9339599609375	-7.68890905380249	-492.30377197265625	-0.0	-0.0	-0.0	-0.0	-0.0	-0.0	145418.890625	15455.5	3562.04150390625
0.2435	-0.0	-0.0	-0.0	-0.0	-0.0	-0.0	9.932201385498049	-8.208829879760742	-495.4327697753906	-0.0	-0.0	-0.0	-0.0	-0.0	-0.0	146111.265625	16145.51171875	3504.765869140625
0.244	-0.0	-0.0	-0.0	-0.0	-0.0	-0.0	9.224163055419922	-7.084991455078125	-496.14447021484375	-0.0	-0.0	-0.0	-0.0	-0.0	-0.0	146641.234375	16744.01953125	3356.796875
0.2445	-0.0	-0.0	-0.0	-0.0	-0.0	-0.0	9.057676315307615	-7.509170532226562	-498.2032470703125	-0.0	-0.0	-0.0	-0.0	-0.0	-0.0	147517.484375	16916.8203125	3385.007568359375
0.245	-0.0	-0.0	-0.0	-0.0	-0.0	-0.0	9.133410453796388	-7.95462703704834	-497.9126281738281	-0.0	-0.0	-0.0	-0.0	-0.0	-0.0	147353.453125	17321.95703125	3207.55615234375
0.2455	-0.0	-0.0	-0.0	-0.0	-0.0	-0.0	9.129390716552734	-8.4788818359375	-498.9068908691406	-0.0	-0.0	-0.0	-0.0	-0.0	-0.0	147515.25	17847.953125	3031.378662109375
0.246	-0.0	-0.0	-0.0	-0.0	-0.0	-0.0	7.996163368225098	-8.830144882202148	-498.961669921875	-0.0	-0.0	-0.0	-0.0	-0.0	-0.0	147666.796875	18135.5703125	2940.863525390625
0.2465	-0.0	-0.0	-0.0	-0.0	-0.0	-0.0	7.457997322082519	-9.175016403198242	-496.8427734375	-0.0	-0.0	-0.0	-0.0	-0.0	-0.0	147744.15625	18505.564453125	2967.27392578125
0.247	-0.0	-0.0	-0.0	-0.0	-0.0	-0.0	7.019022464752197	-8.487540245056152	-497.5154113769531	-0.0	-0.0	-0.0	-0.0	-0.0	-0.0	147511.65625	18664.2265625	2701.53662109375
0.2475	-0.0	-0.0	-0.0	-0.0	-0.0	-0.0	6.227588176727295	-8.39943790435791	-496.5286865234375	-0.0	-0.0	-0.0	-0.0	-0.0	-0.0	147375.65625	18852.90234375	2465.90185546875
0.248	-0.0	-0.0	-0.0	-0.0	-0.0	-0.0	6.38032341003418	-8.211642265319824	-495.4461669921875	-0.0	-0.0	-0.0	-0.0	-0.0	-0.0	147493.15625	19157.92578125	2433.375244140625
0.2485	-0.0	-0.0	-0.0	-0.0	-0.0	-0.0	6.216838836669922	-8.388209342956543	-497.1825866699219	-0.0	-0.0	-0.0	-0.0	-0.0	-0.0	147637.8125	19434.1953125	2225.5146484375
0.249	-0.0	-0.0	-0.0	-0.0	-0.0	-0.0	5.591205596923828	-7.769892692565918	-495.81439208984375	-0.0	-0.0	-0.0	-0.0	-0.0	-0.0	147861.25	19460.609375	2021.5914306640625
0.2495	-0.0	-0.0	-0.0	-0.0	-0.0	-0.0	5.418801784515381	-7.934129238128662	-496.51312255859375	-0.0	-0.0	-0.0	-0.0	-0.0	-0.0	148010.09375	19847.138671875	1958.0057373046875
0.25	-0.0	-0.0	-0.0	-0.0	-0.0	-0.0	5.419032573699951	-7.691627979278564	-496.1746826171875	-0.0	-0.0	-0.0	-0.0	-0.0	-0.0	148122.765625	19969.8671875	1839.35986328125
0.2505	-0.0	-0.0	-0.0	-0.0	-0.0	-0.0	5.411357879638672	-8.206111907958984	-497.5205078125	-0.0	-0.0	-0.0	-0.0	-0.0	-0.0	148289.9375	20371.81640625	1635.9078369140625
0.251	-0.0	-0.0	-0.0	-0.0	-0.0	-0.0	5.841461181640625	-7.951630115509033	-497.5728454589844	-0.0	-0.0	-0.0	-0.0	-0.0	-0.0	148209.859375	20860.7890625	1638.15478515625
0.2515	-0.0	-0.0	-0.0	-0.0	-0.0	-0.0	4.879093170166016	-8.376845359802246	-495.8495178222656	-0.0	-0.0	-0.0	-0.0	-0.0	-0.0	148232.140625	20866.943359375	1395.5521240234375
0.252	-0.0	-0.0	-0.0	-0.0	-0.0	-0.0	4.701671600341797	-8.39335823059082	-496.1997680664063	-0.0	-0.0	-0.0	-0.0	-0.0	-0.0	148047.828125	21313.27734375	1249.9205322265625
0.2525	-0.0	-0.0	-0.0	-0.0	-0.0	-0.0	4.000646114349365	-8.131343841552734	-497.1805419921875	-0.0	-0.0	-0.0	-0.0	-0.0	-0.0	148283.40625	21405.849609375	1010.3226928710938
0.253	-0.0	-0.0	-0.0	-0.0	-0.0	-0.0	3.980178117752075	-8.208039283752441	-495.4693908691406	-0.0	-0.0	-0.0	-0.0	-0.0	-0.0	148220.34375	21576.86328125	1000.4398803710938
0.2535	-0.0	-0.0	-0.0	-0.0	-0.0	-0.0	3.193588256835937	-8.408522605895996	-494.4341735839844	-0.0	-0.0	-0.0	-0.0	-0.0	-0.0	148360.453125	21944.21875	678.3864135742188
0.254	-0.0	-0.0	-0.0	-0.0	-0.0	-0.0	2.8418290615081787	-8.753058433532715	-494.4229431152344	-0.0	-0.0	-0.0	-0.0	-0.0	-0.0	148516.0	22155.48046875	536.8442993164062
0.2545	-0.0	-0.0	-0.0	-0.0	-0.0	-0.0	2.4870505332946777	-8.488286018371582	-496.7808227539063	-0.0	-0.0	-0.0	-0.0	-0.0	-0.0	148253.03125	22475.173828125	354.52838134765625
0.255	-0.0	-0.0	-0.0	-0.0	-0.0	-0.0	2.12583327293396	-8.580049514770508	-496.779296875	-0.0	-0.0	-0.0	-0.0	-0.0	-0.0	148512.90625	22644.271484375	174.0809326171875
0.2555	-0.0	-0.0	-0.0	-0.0	-0.0	-0.0	2.1192169189453125	-9.358832359313965	-497.4894409179688	-0.0	-0.0	-0.0	-0.0	-0.0	-0.0	148622.609375	23100.9296875	0.227043405175209
0.256	-0.0	-0.0	-0.0	-0.0	-0.0	-0.0	1.3373329639434814	-9.10377597808838	-497.56732177734375	-0.0	-0.0	-0.0	-0.0	-0.0	-0.0	148933.75	23583.376953125	-178.23008728027344
0.2565	-0.0	-0.0	-0.0	-0.0	-0.0	-0.0	0.9689934253692628	-8.906899452209473	-497.5813598632813	-0.0	-0.0	-0.0	-0.0	-0.0	-0.0	148978.734375	23683.78515625	-300.495849609375
0.257	-0.0	-0.0	-0.0	-0.0	-0.0	-0.0	0.6957770586013794	-8.944725036621094	-497.2329406738281	-0.0	-0.0	-0.0	-0.0	-0.0	-0.0	149244.4375	23964.0546875	-565.3938598632812
0.2575	-0.0	-0.0	-0.0	-0.0	-0.0	-0.0	0.4470862746238708	-9.471521377563477	-498.6858215332031	-0.0	-0.0	-0.0	-0.0	-0.0	-0.0	149348.34375	24006.6328125	-709.300048828125
0.258	-0.0	-0.0	-0.0	-0.0	-0.0	-0.0	0.2589136660099029	-9.810894012451172	-498.5885009765625	-0.0	-0.0	-0.0	-0.0	-0.0	-0.0	149567.71875	24510.388671875	-825.6593627929688
0.2585	-0.0	-0.0	-0.0	-0.0	-0.0	-0.0	0.3511690497398376	-10.160652160644531	-499.985107421875	-0.0	-0.0	-0.0	-0.0	-0.0	-0.0	149720.09375	24813.84765625	-1012.1370849609376
0.259	-0.0	-0.0	-0.0	-0.0	-0.0	-0.0	0.3473409414291382	-10.484138488769531	-501.04736328125	-0.0	-0.0	-0.0	-0.0	-0.0	-0.0	149744.34375	24646.8203125	-949.1565551757812
0.2595	-0.0	-0.0	-0.0	-0.0	-0.0	-0.0	0.5170401334762573	-10.32984733581543	-502.08001708984375	-0.0	-0.0	-0.0	-0.0	-0.0	-0.0	149995.015625	25160.19140625	-979.8966674804688
0.26	-0.0	-0.0	-0.0	-0.0	-0.0	-0.0	0.2738547623157501	-9.980350494384766	-501.74609375	-0.0	-0.0	-0.0	-0.0	-0.0	-0.0	150113.21875	25156.642578125	-982.5447387695312
0.2605	-0.0	-0.0	-0.0	-0.0	-0.0	-0.0	0.3430285155773163	-9.964666366577148	-502.0955200195313	-0.0	-0.0	-0.0	-0.0	-0.0	-0.0	150365.0625	25443.673828125	-981.2003173828124
0.261	-0.0	-0.0	-0.0	-0.0	-0.0	-0.0	0.4315451681613922	-9.366084098815918	-501.016845703125	-0.0	-0.0	-0.0	-0.0	-0.0	-0.0	150658.203125	25572.38671875	-1154.9541015625
0.2615	-0.0	-0.0	-0.0	-0.0	-0.0	-0.0	0.8749334812164307	-9.341897010803224	-503.1275024414063	-0.0	-0.0	-0.0	-0.0	-0.0	-0.0	150559.4375	25658.26953125	-1273.2332763671875
0.262	-0.0	-0.0	-0.0	-0.0	-0.0	-0.0	0.4476890563964844	-8.318706512451172	-504.4590148925781	-0.0	-0.0	-0.0	-0.0	-0.0	-0.0	151202.78125	25479.501953125	-1304.246826171875
0.2625	-0.0	-0.0	-0.0	-0.0	-0.0	-0.0	0.7731964588165283	-7.599846839904785	-504.507568359375	-0.0	-0.0	-0.0	-0.0	-0.0	-0.0	151298.140625	25827.60546875	-1219.0106201171875
0.263	-0.0	-0.0	-0.0	-0.0	-0.0	-0.0	0.5408189296722412	-7.339216709136963	-504.4736022949219	-0.0	-0.0	-0.0	-0.0	-0.0	-0.0	151729.9375	25704.064453125	-1248.7994384765625
0.2635	-0.0	-0.0	-0.0	-0.0	-0.0	-0.0	0.9758186340332032	-7.490090847015381	-504.2090148925781	-0.0	-0.0	-0.0	-0.0	-0.0	-0.0	151697.65625	26007.654296875	-1273.8648681640625
0.264	-0.0	-0.0	-0.0	-0.0	-0.0	-0.0	0.9407215714454652	-6.57074785232544	-504.20947265625	-0.0	-0.0	-0.0	-0.0	-0.0	-0.0	151954.15625	25886.45703125	-1197.83056640625
0.2645	-0.0	-0.0	-0.0	-0.0	-0.0	-0.0	0.7939329147338867	-6.628571033477783	-505.589111328125	-0.0	-0.0	-0.0	-0.0	-0.0	-0.0	151842.6875	26279.943359375	-1358.2010498046875
0.265	-0.0	-0.0	-0.0	-0.0	-0.0	-0.0	1.0464138984680176	-7.074752807617188	-505.625	-0.0	-0.0	-0.0	-0.0	-0.0	-0.0	151564.3125	26302.65234375	-1310.8138427734375
0.2655	-0.0	-0.0	-0.0	-0.0	-0.0	-0.0	1.1394877433776855	-6.954592704772949	-504.61431884765625	-0.0	-0.0	-0.0	-0.0	-0.0	-0.0	151988.75	26491.0390625	-1484.1580810546875
0.266	-0.0	-0.0	-0.0	-0.0	-0.0	-0.0	0.8684632182121277	-6.977413177490234	-505.2958068847656	-0.0	-0.0	-0.0	-0.0	-0.0	-0.0	152066.890625	26350.8125	-1515.5792236328125
0.2665	-0.0	-0.0	-0.0	-0.0	-0.0	-0.0	0.4577312767505646	-7.242378234863281	-506.69342041015625	-0.0	-0.0	-0.0	-0.0	-0.0	-0.0	152277.234375	26677.447265625	-1515.9603271484375
0.267	-0.0	-0.0	-0.0	-0.0	-0.0	-0.0	0.7983970642089844	-6.869964599609375	-505.996337890625	-0.0	-0.0	-0.0	-0.0	-0.0	-0.0	152172.375	26802.951171875	-1629.4873046875
0.2675	-0.0	-0.0	-0.0	-0.0	-0.0	-0.0	0.9016811847686768	-6.800769805908203	-508.015625	-0.0	-0.0	-0.0	-0.0	-0.0	-0.0	152393.203125	26828.146484375	-1718.3515625
0.268	-0.0	-0.0	-0.0	-0.0	-0.0	-0.0	1.1237634420394895	-6.81055212020874	-507.3753356933594	-0.0	-0.0	-0.0	-0.0	-0.0	-0.0	152778.609375	27182.92578125	-1574.7674560546875
0.2685	-0.0	-0.0	-0.0	-0.0	-0.0	-0.0	0.8183562755584717	-7.394182205200195	-508.71392822265625	-0.0	-0.0	-0.0	-0.0	-0.0	-0.0	152280.03125	27269.634765625	-1690.4779052734375
